<?xml version="1.0" encoding="utf-8"?>
<!-- Generator: Adobe Illustrator 17.1.0, SVG Export Plug-In . SVG Version: 6.00 Build 0)  -->
<!DOCTYPE svg PUBLIC "-//W3C//DTD SVG 1.1//EN" "http://www.w3.org/Graphics/SVG/1.1/DTD/svg11.dtd">
<svg version="1.1" id="calculator" xmlns="http://www.w3.org/2000/svg" xmlns:xlink="http://www.w3.org/1999/xlink" x="0px" y="0px"
	 viewBox="0 0 99.997 99.9942" enable-background="new 0 0 99.997 99.9942" xml:space="preserve">
<path id="calculator-label" fill="#324058" d="M49.9961,99.9942c27.6133,0,50.0009-22.3819,50.0009-49.9956
	C99.997,22.3892,77.6094,0,49.9961,0C22.3877,0,0,22.3892,0,49.9986C0,77.6123,22.3877,99.9942,49.9961,99.9942z"/>
<g id="calculator-calculator">
	<g>
		<path fill="#43C7D2" d="M70.0859,75.7627h-40.31c-2.8697,0-5.2041-2.333-5.2041-5.206V30.2491
			c0-2.8707,2.3344-5.2056,5.2041-5.2056h40.31c2.8682,0,5.2031,2.3349,5.2031,5.2056v40.3076
			C75.289,73.4297,72.9541,75.7627,70.0859,75.7627L70.0859,75.7627z M29.7759,26.9473c-1.8199,0-3.3008,1.481-3.3008,3.3018
			v40.3076c0,1.8222,1.4809,3.3037,3.3008,3.3037h40.31c1.8184,0,3.2998-1.4815,3.2998-3.3037V30.2491
			c0-1.8208-1.4814-3.3018-3.2998-3.3018H29.7759L29.7759,26.9473z"/>
	</g>
	<g>
		<polygon fill="#FFFFFF" points="38.8432,44.8404 36.9389,44.8404 36.9389,30.667 38.8432,30.667 38.8432,44.8404 		"/>
	</g>
	<g>
		<polygon fill="#FFFFFF" points="44.9751,38.7056 30.8052,38.7056 30.8052,36.8023 44.9751,36.8023 44.9751,38.7056 		"/>
	</g>
	<g>
		<polygon fill="#FFFFFF" points="69.666,38.7056 55.4951,38.7056 55.4951,36.8023 69.666,36.8023 69.666,38.7056 		"/>
	</g>
	<g>
		<polygon fill="#FFFFFF" points="32.8945,68.1748 31.5498,66.8272 42.8886,55.4883 44.2344,56.835 32.8945,68.1748 		"/>
	</g>
	<g>
		<polygon fill="#FFFFFF" points="42.8886,68.1748 31.5498,56.835 32.8945,55.4883 44.2344,66.8272 42.8886,68.1748 		"/>
	</g>
	<g>
		<polygon fill="#EB8619" points="69.666,59.8448 55.4951,59.8448 55.4951,57.9405 69.666,57.9405 69.666,59.8448 		"/>
	</g>
	<g>
		<polygon fill="#EB8619" points="69.666,65.7246 55.4951,65.7246 55.4951,63.8184 69.666,63.8184 69.666,65.7246 		"/>
	</g>
	<g>
		<polygon fill="#43C7D2" points="74.4756,50.1358 26.4731,50.1358 26.4731,48.2315 74.4756,48.2315 74.4756,50.1358 		"/>
	</g>
	<g>
		<polygon fill="#43C7D2" points="51.4248,74.3926 49.5215,74.3926 49.5215,26.3902 51.4248,26.3902 51.4248,74.3926 		"/>
	</g>
</g>
</svg>
