<?xml version="1.0" encoding="UTF-8" standalone="no"?>
<svg
   xmlns:dc="http://purl.org/dc/elements/1.1/"
   xmlns:cc="http://creativecommons.org/ns#"
   xmlns:rdf="http://www.w3.org/1999/02/22-rdf-syntax-ns#"
   xmlns:svg="http://www.w3.org/2000/svg"
   xmlns="http://www.w3.org/2000/svg"
   id="svg5088"
   version="1.1"
   viewBox="0 0 21.138192 21.138192"
   height="21.138193mm"
   width="21.138193mm">
  <defs
     id="defs5082">
    <clipPath
       id="clipPath26"
       clipPathUnits="userSpaceOnUse">
      <path
         id="path24"
         d="m 46.87,357.72 h 57.62 v -61.3 H 46.87 Z" />
    </clipPath>
    <clipPath
       id="clipPath68"
       clipPathUnits="userSpaceOnUse">
      <path
         id="path66"
         d="m 134.76,353.97 h 53.44 v -53.8 h -53.44 z" />
    </clipPath>
    <clipPath
       id="clipPath92"
       clipPathUnits="userSpaceOnUse">
      <path
         id="path90"
         d="m 223.45,354.72 h 47.18 v -55.29 h -47.18 z" />
    </clipPath>
    <clipPath
       id="clipPath340"
       clipPathUnits="userSpaceOnUse">
      <path
         id="path338"
         d="m 297.63,333.83 h 56.08 V 295.5 h -56.08 z" />
    </clipPath>
    <clipPath
       id="clipPath220"
       clipPathUnits="userSpaceOnUse">
      <path
         id="path218"
         d="M 378.05,353.71 H 427.8 V 300.43 H 378.05 Z" />
    </clipPath>
    <clipPath
       id="clipPath1224"
       clipPathUnits="userSpaceOnUse">
      <path
         id="path1222"
         d="m 450.12,353.2 h 52.25 v -52.25 h -52.25 z" />
    </clipPath>
  </defs>
  <metadata
     id="metadata5085">
    <rdf:RDF>
      <cc:Work
         rdf:about="">
        <dc:format>image/svg+xml</dc:format>
        <dc:type
           rdf:resource="http://purl.org/dc/dcmitype/StillImage" />
        <dc:title></dc:title>
      </cc:Work>
    </rdf:RDF>
  </metadata>
  <g
     transform="translate(-51.741113,-88.274883)"
     id="layer1">
    <g
       id="g6323"
       transform="matrix(0.35277777,0,0,-0.35277777,-105.69851,214.22884)">
      <g
         id="g1218">
        <g
           id="g1220" />
        <g
           id="g1298">
          <g
             clip-path="url(#clipPath1224)"
             id="g1296">
            <path
               d="m 498.92,326.57 h -4.64 v 1.01 h 4.64 z"
               style="fill:#fafbfc;fill-opacity:1;fill-rule:nonzero;stroke:none"
               id="path1226" />
            <g
               transform="translate(486.4502,316.52)"
               id="g1230">
              <path
                 d="m 0,0 1.14,-4.47 -4.52,1.05 1.56,1.58 1.2,-1.45 0.75,0.63 -1.26,1.52 z"
                 style="fill:#00607f;fill-opacity:1;fill-rule:nonzero;stroke:none"
                 id="path1228" />
            </g>
            <g
               transform="translate(485.3203,315.3799)"
               id="g1234">
              <path
                 d="M 0,0 1.26,-1.52 0.51,-2.15 -0.69,-0.7 Z"
                 style="fill:#00607f;fill-opacity:1;fill-rule:nonzero;stroke:none"
                 id="path1232" />
            </g>
            <g
               transform="translate(485.3203,315.3799)"
               id="g1238">
              <path
                 d="m 0,0 -0.69,-0.7 -7.411,8.93 c 0.311,0.13 0.58,0.31 0.821,0.54 z"
                 style="fill:#fafbfc;fill-opacity:1;fill-rule:nonzero;stroke:none"
                 id="path1236" />
            </g>
            <g
               transform="translate(476.2197,341.0098)"
               id="g1242">
              <path
                 d="M 0,0 2.431,-3.95 H 0.54 v 1.47 h -1.09 v -1.47 h -1.83 z"
                 style="fill:#00607f;fill-opacity:1;fill-rule:nonzero;stroke:none"
                 id="path1240" />
            </g>
            <g
               transform="translate(476.7598,328.54)"
               id="g1246">
              <path
                 d="m 0,0 c 1.181,-0.24 2.07,-1.29 2.07,-2.54 0,-0.73 -0.299,-1.39 -0.79,-1.85 l -0.67,0.8 c 0.26,0.27 0.42,0.64 0.42,1.05 0,0.68 -0.429,1.25 -1.03,1.45 z"
                 style="fill:#fafbfc;fill-opacity:1;fill-rule:nonzero;stroke:none"
                 id="path1244" />
            </g>
            <g
               transform="translate(477.3701,324.9502)"
               id="g1250">
              <path
                 d="M 0,0 0.67,-0.8 C 0.43,-1.03 0.16,-1.21 -0.15,-1.34 l -0.661,0.8 0.161,0.13 C -0.4,-0.33 -0.17,-0.19 0,0"
                 style="fill:#fafbfc;fill-opacity:1;fill-rule:nonzero;stroke:none"
                 id="path1248" />
            </g>
            <g
               transform="translate(476.7197,324.54)"
               id="g1254">
              <path
                 d="M 0,0 0.59,0.49 0.65,0.41 C 0.48,0.22 0.25,0.08 0,0"
                 style="fill:#fafbfc;fill-opacity:1;fill-rule:nonzero;stroke:none"
                 id="path1252" />
            </g>
            <g
               transform="translate(475.6699,326.6802)"
               id="g1258">
              <path
                 d="m 0,0 v 0.76 c 0.18,0.07 0.37,0.11 0.57,0.11 0.18,0 0.36,-0.03 0.52,-0.1 L 1.09,0 Z"
                 style="fill:#fafbfc;fill-opacity:1;fill-rule:nonzero;stroke:none"
                 id="path1256" />
            </g>
            <g
               transform="translate(476.7598,337.0601)"
               id="g1262">
              <path
                 d="m 0,0 v -8.52 c -0.17,0.03 -0.34,0.05 -0.52,0.05 -0.2,0 -0.39,-0.02 -0.57,-0.06 V 0 Z"
                 style="fill:#fafbfc;fill-opacity:1;fill-rule:nonzero;stroke:none"
                 id="path1260" />
            </g>
            <path
               d="m 476.76,337.06 h -1.09 v 1.47 h 1.09 z"
               style="fill:#00607f;fill-opacity:1;fill-rule:nonzero;stroke:none"
               id="path1264" />
            <path
               d="m 476.75,304.77 h -1.01 v 4.64 h 1.01 z"
               style="fill:#fafbfc;fill-opacity:1;fill-rule:nonzero;stroke:none"
               id="path1266" />
            <g
               transform="translate(487.5898,312.0498)"
               id="g1270">
              <path
                 d="M 0,0 -1.14,4.47 -2.27,3.33 -9.55,12.1 c 0.49,0.46 0.79,1.12 0.79,1.85 0,1.25 -0.889,2.3 -2.07,2.54 v 8.52 h 1.891 l -2.431,3.95 -2.38,-3.95 h 1.83 v -8.53 c -1.15,-0.26 -2.01,-1.3 -2.01,-2.53 0,-1.43 1.15,-2.58 2.58,-2.58 0.35,0 0.68,0.07 0.98,0.19 L -2.96,2.63 -4.52,1.05 Z m -11.85,-7.28 h 1.01 v 4.64 h -1.01 z m -0.06,40.5 h 1.011 v 4.64 h -1.011 z m -22.71,-18.2 c 0,12.83 10.44,23.27 23.27,23.27 12.84,0 23.28,-10.44 23.28,-23.27 0,-12.83 -10.44,-23.27 -23.28,-23.27 -12.83,0 -23.27,10.44 -23.27,23.27 m 1.09,0.15 h 4.641 v 1 h -4.641 z m 44.86,0.36 H 6.69 v -1.01 h 4.64 z"
                 style="fill:#ffbb00;fill-opacity:1;fill-rule:nonzero;stroke:none"
                 id="path1268" />
            </g>
            <path
               d="m 476.69,345.27 h -1.011 v 4.64 h 1.011 z"
               style="fill:#fafbfc;fill-opacity:1;fill-rule:nonzero;stroke:none"
               id="path1272" />
            <g
               transform="translate(475.6699,327.4399)"
               id="g1276">
              <path
                 d="M 0,0 V 1.09 C 0.18,1.13 0.37,1.15 0.57,1.15 0.75,1.15 0.92,1.13 1.09,1.1 V 0.01 C 0.93,0.08 0.75,0.11 0.57,0.11 0.37,0.11 0.18,0.07 0,0"
                 style="fill:#fafbfc;fill-opacity:1;fill-rule:nonzero;stroke:none"
                 id="path1274" />
            </g>
            <g
               transform="translate(475.6699,327.4399)"
               id="g1280">
              <path
                 d="m 0,0 v -0.76 h 1.09 v 0.77 c 0.6,-0.2 1.03,-0.77 1.03,-1.45 0,-0.41 -0.16,-0.78 -0.42,-1.05 L 1.64,-2.41 1.05,-2.9 C 0.9,-2.95 0.74,-2.98 0.57,-2.98 c -0.85,0 -1.54,0.69 -1.54,1.54 0,0.66 0.4,1.21 0.97,1.44"
                 style="fill:#00607f;fill-opacity:1;fill-rule:nonzero;stroke:none"
                 id="path1278" />
            </g>
            <g
               transform="translate(475.6699,328.5298)"
               id="g1284">
              <path
                 d="m 0,0 v -1.09 c -0.57,-0.23 -0.97,-0.78 -0.97,-1.44 0,-0.85 0.69,-1.54 1.54,-1.54 0.17,0 0.33,0.03 0.48,0.08 l -0.16,-0.13 0.66,-0.8 c -0.3,-0.12 -0.63,-0.19 -0.98,-0.19 -1.43,0 -2.58,1.15 -2.58,2.58 0,1.23 0.86,2.27 2.01,2.53"
                 style="fill:#fafbfc;fill-opacity:1;fill-rule:nonzero;stroke:none"
                 id="path1282" />
            </g>
            <path
               d="m 458.7,327.22 h -4.641 v 1 h 4.641 z"
               style="fill:#fafbfc;fill-opacity:1;fill-rule:nonzero;stroke:none"
               id="path1286" />
            <g
               transform="translate(476.2402,302.3701)"
               id="g1290">
              <path
                 d="m 0,0 c -13.641,0 -24.69,11.06 -24.69,24.7 0,13.64 11.049,24.7 24.69,24.7 13.64,0 24.7,-11.06 24.7,-24.7 C 24.7,11.06 13.64,0 0,0 M 0,47.97 C -12.83,47.97 -23.271,37.53 -23.271,24.7 -23.271,11.87 -12.83,1.43 0,1.43 12.84,1.43 23.279,11.87 23.279,24.7 23.279,37.53 12.84,47.97 0,47.97"
                 style="fill:#6c9814;fill-opacity:1;fill-rule:nonzero;stroke:none"
                 id="path1288" />
            </g>
            <g
               transform="translate(451.5498,327.0698)"
               id="g1294">
              <path
                 d="m 0,0 c 0,-13.64 11.05,-24.7 24.69,-24.7 13.64,0 24.701,11.06 24.701,24.7 0,13.64 -11.061,24.7 -24.701,24.7 C 11.05,24.7 0,13.64 0,0 M 6.22,-18.47 C 1.29,-13.54 -1.43,-6.98 -1.43,0 c 0,6.98 2.72,13.54 7.65,18.48 4.94,4.93 11.5,7.65 18.47,7.65 6.98,0 13.54,-2.72 18.48,-7.65 4.931,-4.94 7.65,-11.5 7.65,-18.48 0,-6.98 -2.719,-13.54 -7.65,-18.47 -4.94,-4.94 -11.5,-7.65 -18.48,-7.65 -6.97,0 -13.53,2.71 -18.47,7.65"
                 style="fill:#6c9814;fill-opacity:1;fill-rule:nonzero;stroke:none"
                 id="path1292" />
            </g>
          </g>
        </g>
      </g>
      <g
         id="g1300"
         transform="translate(476.2402,300.9502)">
        <path
           d="m 0,0 c -6.971,0 -13.53,2.71 -18.471,7.65 -4.929,4.93 -7.649,11.49 -7.649,18.47 0,6.98 2.72,13.54 7.649,18.48 4.941,4.93 11.5,7.65 18.471,7.65 6.979,0 13.54,-2.72 18.479,-7.65 C 23.41,39.66 26.13,33.1 26.13,26.12 26.13,19.14 23.41,12.58 18.479,7.65 13.54,2.71 6.979,0 0,0 Z"
           style="fill:none;stroke:#141414;stroke-width:2;stroke-linecap:round;stroke-linejoin:round;stroke-miterlimit:10;stroke-dasharray:none;stroke-opacity:1"
           id="path1302" />
      </g>
      <g
         id="g1304"
         transform="translate(476.2402,350.3398)">
        <path
           d="m 0,0 c -12.83,0 -23.271,-10.44 -23.271,-23.27 0,-12.83 10.441,-23.27 23.271,-23.27 12.84,0 23.279,10.44 23.279,23.27 C 23.279,-10.44 12.84,0 0,0 Z"
           style="fill:none;stroke:#141414;stroke-width:2;stroke-linecap:round;stroke-linejoin:round;stroke-miterlimit:10;stroke-dasharray:none;stroke-opacity:1"
           id="path1306" />
      </g>
      <g
         id="g1308"
         transform="translate(476.7598,337.0601)">
        <path
           d="M 0,0 V -8.52"
           style="fill:none;stroke:#141414;stroke-width:2;stroke-linecap:round;stroke-linejoin:round;stroke-miterlimit:10;stroke-dasharray:none;stroke-opacity:1"
           id="path1310" />
      </g>
      <g
         id="g1312"
         transform="translate(475.6699,328.5298)">
        <path
           d="M 0,0 V 8.53"
           style="fill:none;stroke:#141414;stroke-width:2;stroke-linecap:round;stroke-linejoin:round;stroke-miterlimit:10;stroke-dasharray:none;stroke-opacity:1"
           id="path1314" />
      </g>
      <g
         id="g1316"
         transform="translate(476.7598,337.0601)">
        <path
           d="M 0,0 H 1.891 L -0.54,3.95 -2.92,0 h 1.83 z"
           style="fill:none;stroke:#141414;stroke-width:2;stroke-linecap:round;stroke-linejoin:round;stroke-miterlimit:10;stroke-dasharray:none;stroke-opacity:1"
           id="path1318" />
      </g>
      <g
         id="g1320"
         transform="translate(484.6299,314.6802)">
        <path
           d="M 0,0 -7.41,8.93"
           style="fill:none;stroke:#141414;stroke-width:2;stroke-linecap:round;stroke-linejoin:round;stroke-miterlimit:10;stroke-dasharray:none;stroke-opacity:1"
           id="path1322" />
      </g>
      <g
         id="g1324"
         transform="translate(478.04,324.1499)">
        <path
           d="M 0,0 7.28,-8.77"
           style="fill:none;stroke:#141414;stroke-width:2;stroke-linecap:round;stroke-linejoin:round;stroke-miterlimit:10;stroke-dasharray:none;stroke-opacity:1"
           id="path1326" />
      </g>
      <g
         id="g1328"
         transform="translate(476.7598,328.54)">
        <path
           d="M 0,0 C 1.181,-0.24 2.07,-1.29 2.07,-2.54 2.07,-3.27 1.771,-3.93 1.28,-4.39 1.04,-4.62 0.771,-4.8 0.46,-4.93 c -0.3,-0.12 -0.63,-0.19 -0.98,-0.19 -1.43,0 -2.58,1.15 -2.58,2.58 0,1.23 0.86,2.27 2.01,2.53 0.18,0.04 0.37,0.06 0.57,0.06 C -0.34,0.05 -0.17,0.03 0,0 Z"
           style="fill:none;stroke:#141414;stroke-width:2;stroke-linecap:round;stroke-linejoin:round;stroke-miterlimit:10;stroke-dasharray:none;stroke-opacity:1"
           id="path1330" />
      </g>
      <g
         id="g1332"
         transform="translate(476.7598,327.4502)">
        <path
           d="m 0,0 c 0.601,-0.2 1.03,-0.77 1.03,-1.45 0,-0.41 -0.16,-0.78 -0.42,-1.05 -0.17,-0.19 -0.4,-0.33 -0.65,-0.41 -0.149,-0.05 -0.31,-0.08 -0.48,-0.08 -0.85,0 -1.54,0.69 -1.54,1.54 0,0.66 0.4,1.21 0.97,1.44 0.18,0.07 0.37,0.11 0.57,0.11 C -0.34,0.1 -0.16,0.07 0,0 Z"
           style="fill:none;stroke:#141414;stroke-width:2;stroke-linecap:round;stroke-linejoin:round;stroke-miterlimit:10;stroke-dasharray:none;stroke-opacity:1"
           id="path1334" />
      </g>
      <g
         id="g1336"
         transform="translate(484.6299,314.6802)">
        <path
           d="M 0,0 -1.56,-1.58 2.96,-2.63 1.82,1.84 0.69,0.7 Z"
           style="fill:none;stroke:#141414;stroke-width:2;stroke-linecap:round;stroke-linejoin:round;stroke-miterlimit:10;stroke-dasharray:none;stroke-opacity:1"
           id="path1338" />
      </g>
      <path
         d="m 476.69,345.27 h -1.011 v 4.64 h 1.011 z"
         style="fill:none;stroke:#141414;stroke-width:2;stroke-linecap:round;stroke-linejoin:round;stroke-miterlimit:10;stroke-dasharray:none;stroke-opacity:1"
         id="path1340" />
      <path
         d="m 476.75,304.77 h -1.01 v 4.64 h 1.01 z"
         style="fill:none;stroke:#141414;stroke-width:2;stroke-linecap:round;stroke-linejoin:round;stroke-miterlimit:10;stroke-dasharray:none;stroke-opacity:1"
         id="path1342" />
      <path
         d="m 498.92,326.57 h -4.64 v 1.01 h 4.64 z"
         style="fill:none;stroke:#141414;stroke-width:2;stroke-linecap:round;stroke-linejoin:round;stroke-miterlimit:10;stroke-dasharray:none;stroke-opacity:1"
         id="path1344" />
      <path
         d="m 458.7,327.22 h -4.641 v 1 h 4.641 z"
         style="fill:none;stroke:#141414;stroke-width:2;stroke-linecap:round;stroke-linejoin:round;stroke-miterlimit:10;stroke-dasharray:none;stroke-opacity:1"
         id="path1346" />
    </g>
  </g>
</svg>
