<?xml version="1.0" encoding="utf-8"?>
<!-- Generator: Adobe Illustrator 16.0.0, SVG Export Plug-In . SVG Version: 6.00 Build 0)  -->
<!DOCTYPE svg PUBLIC "-//W3C//DTD SVG 1.1//EN" "http://www.w3.org/Graphics/SVG/1.1/DTD/svg11.dtd">
<svg version="1.1" id="Layer_1" xmlns="http://www.w3.org/2000/svg" xmlns:xlink="http://www.w3.org/1999/xlink" x="0px" y="0px"
	 width="66px" height="66px" viewBox="0 0 66 66" enable-background="new 0 0 66 66" xml:space="preserve">
<g>
	<g>
		<g>
			<g>
				<path fill="#1D2226" d="M45.289,18.267c0,0.855,0.695,1.549,1.549,1.549h4.072c0.855,0,1.549-0.693,1.549-1.549l2.449-6.456
					c0-0.855-0.695-1.549-1.551-1.549h-6.52c-0.854,0-1.549,0.693-1.549,1.549V18.267z"/>
				<path fill="#2D333A" d="M34.826,10.7c0,0.728,0.59,1.316,1.316,1.316h18.715c0.727,0,1.316-0.589,1.316-1.316l0,0
					c0-0.727-0.59-1.315-1.316-1.315H36.143C35.416,9.385,34.826,9.974,34.826,10.7L34.826,10.7z"/>
			</g>
			<g>
				<path fill="#1D2226" d="M45.289,36.666c0,0.856,0.695,1.55,1.549,1.55h4.072c0.855,0,1.549-0.693,1.549-1.55l2.449-6.455
					c0-0.855-0.695-1.549-1.551-1.549h-6.52c-0.854,0-1.549,0.693-1.549,1.549V36.666z"/>
				<path fill="#2D333A" d="M34.826,29.101c0,0.727,0.59,1.316,1.316,1.316h18.715c0.727,0,1.316-0.59,1.316-1.316l0,0
					c0-0.727-0.59-1.315-1.316-1.315H36.143C35.416,27.785,34.826,28.374,34.826,29.101L34.826,29.101z"/>
			</g>
			<g>
				<path fill="#1D2226" d="M45.289,55.066c0,0.855,0.695,1.549,1.549,1.549h4.072c0.855,0,1.549-0.693,1.549-1.549l2.449-6.455
					c0-0.855-0.695-1.55-1.551-1.55h-6.52c-0.854,0-1.549,0.694-1.549,1.55V55.066z"/>
				<path fill="#2D333A" d="M34.826,47.501c0,0.727,0.59,1.315,1.316,1.315h18.715c0.727,0,1.316-0.589,1.316-1.315l0,0
					c0-0.727-0.59-1.316-1.316-1.316H36.143C35.416,46.185,34.826,46.774,34.826,47.501L34.826,47.501z"/>
			</g>
		</g>
		<g>
			<g>
				<path fill="#393F47" d="M20.711,18.267c0,0.855-0.695,1.549-1.549,1.549H15.09c-0.855,0-1.549-0.693-1.549-1.549l-2.449-6.456
					c0-0.855,0.695-1.549,1.551-1.549h6.52c0.854,0,1.549,0.693,1.549,1.549V18.267z"/>
				<path fill="#2D333A" d="M31.174,10.7c0,0.728-0.59,1.316-1.316,1.316H11.143c-0.727,0-1.316-0.589-1.316-1.316l0,0
					c0-0.727,0.59-1.315,1.316-1.315h18.715C30.584,9.385,31.174,9.974,31.174,10.7L31.174,10.7z"/>
			</g>
			<g>
				<path fill="#393F47" d="M20.711,36.666c0,0.856-0.695,1.55-1.549,1.55H15.09c-0.855,0-1.549-0.693-1.549-1.55l-2.449-6.455
					c0-0.855,0.695-1.549,1.551-1.549h6.52c0.854,0,1.549,0.693,1.549,1.549V36.666z"/>
				<path fill="#2D333A" d="M31.174,29.101c0,0.727-0.59,1.316-1.316,1.316H11.143c-0.727,0-1.316-0.59-1.316-1.316l0,0
					c0-0.727,0.59-1.315,1.316-1.315h18.715C30.584,27.785,31.174,28.374,31.174,29.101L31.174,29.101z"/>
			</g>
			<g>
				<path fill="#393F47" d="M20.711,55.066c0,0.855-0.695,1.549-1.549,1.549H15.09c-0.855,0-1.549-0.693-1.549-1.549l-2.449-6.455
					c0-0.855,0.695-1.55,1.551-1.55h6.52c0.854,0,1.549,0.694,1.549,1.55V55.066z"/>
				<path fill="#2D333A" d="M31.174,47.501c0,0.727-0.59,1.315-1.316,1.315H11.143c-0.727,0-1.316-0.589-1.316-1.315l0,0
					c0-0.727,0.59-1.316,1.316-1.316h18.715C30.584,46.185,31.174,46.774,31.174,47.501L31.174,47.501z"/>
			</g>
		</g>
	</g>
	<path fill="#444951" d="M48.629,61.031c0,2.191,0.222,3.969-1.97,3.969H19.341c-2.191,0-1.97-1.777-1.97-3.969V4.969
		c0-2.191,1.778-3.969,3.97-3.969h23.318c2.191,0,3.97,1.777,3.97,3.969V61.031z"/>
	<path fill="#393F47" d="M17.371,4.969c0-2.191,1.778-3.969,3.97-3.969h23.318c2.191,0,3.97,1.777,3.97,3.969v56.062
		c0,2.191,0.222,3.969-1.97,3.969"/>
	<g>
		<path fill="#2D333A" d="M39.338,14.25c0,3.452-2.799,10.25-6.25,10.25c-3.453,0-6.25-6.798-6.25-10.25S29.635,8,33.088,8
			C36.539,8,39.338,10.798,39.338,14.25z"/>
		<circle fill="#EF2E65" cx="33.088" cy="14.25" r="6.25"/>
		<path fill="#CC0E57" d="M28.668,9.831c2.44-2.441,6.397-2.441,8.838,0c2.441,2.44,2.441,6.398,0,8.839"/>
	</g>
	<g>
		<path fill="#2D333A" d="M39.338,31.417c0,3.452-2.799,10.25-6.25,10.25c-3.453,0-6.25-6.798-6.25-10.25s2.797-6.25,6.25-6.25
			C36.539,25.167,39.338,27.965,39.338,31.417z"/>
		<circle fill="#EDBF2F" cx="33.088" cy="31.417" r="6.25"/>
		<path fill="#DBA81B" d="M28.668,26.997c2.44-2.441,6.397-2.441,8.838,0c2.441,2.44,2.441,6.398,0,8.839"/>
	</g>
	<g>
		<path fill="#2D333A" d="M39.338,48.583c0,3.452-2.799,10.25-6.25,10.25c-3.453,0-6.25-6.798-6.25-10.25s2.797-6.25,6.25-6.25
			C36.539,42.333,39.338,45.131,39.338,48.583z"/>
		<circle fill="#32D85D" cx="33.088" cy="48.583" r="6.25"/>
		<path fill="#19BF55" d="M28.668,44.164c2.44-2.441,6.397-2.441,8.838,0c2.441,2.439,2.441,6.397,0,8.838"/>
	</g>
	<path fill="#4F545B" d="M19.341,65c-2.191,0-1.97-1.777-1.97-3.969V4.969c0-2.191,1.778-3.969,3.97-3.969"/>
</g>
</svg>
